<?xml version="1.0" encoding="utf-8"?>
<!-- Generator: Adobe Illustrator 26.1.0, SVG Export Plug-In . SVG Version: 6.00 Build 0)  -->
<svg version="1.1" xmlns="http://www.w3.org/2000/svg" xmlns:xlink="http://www.w3.org/1999/xlink" x="0px" y="0px"
	 viewBox="0 0 157.43 121.48" style="enable-background:new 0 0 157.43 121.48;" xml:space="preserve">
<style type="text/css">
	.st0{fill:#25262E;}
	.st1{fill:url(#SVGID_1_);}
	.st2{fill:url(#SVGID_00000034786525093868323780000016486647842143464607_);}
	.st3{fill:#FFFFFF;stroke:#FFFFFF;stroke-width:0.5;stroke-miterlimit:10;}
	.st4{fill:url(#SVGID_00000109723584055364227010000008353755685620958345_);}
	.st5{fill:url(#SVGID_00000070116958806866094320000008611819504333878931_);}
	.st6{fill:url(#SVGID_00000026136172686415075060000000086073689087426706_);}
	.st7{fill:url(#SVGID_00000044136704290847712880000014163031411409835955_);}
	.st8{fill:url(#SVGID_00000043429947894230741690000012164407087211375009_);}
	.st9{fill:url(#SVGID_00000101819623015374718560000002506781627166962861_);}
	.st10{fill:url(#SVGID_00000109749053263155953740000011481562617950821797_);}
	.st11{fill:url(#SVGID_00000035493958409394621210000017408659253845711796_);}
	.st12{fill:url(#SVGID_00000034077377150043074830000004449492106799162017_);}
	.st13{fill:url(#SVGID_00000085209278111978844590000003714871324343128459_);}
	.st14{fill:url(#SVGID_00000164495675882385276860000006593920202149421210_);}
	.st15{fill:url(#SVGID_00000125591008374541933200000011628732127364702392_);}
	.st16{fill:url(#SVGID_00000054262313083516582370000011941684954174759570_);}
	.st17{fill:url(#SVGID_00000149356657884461227630000017195019243505535106_);}
	.st18{fill:url(#SVGID_00000061444708097382012680000010015197076394884005_);}
</style>
<g id="BACKGROUND">
	<rect x="-590" y="-111.18" class="st0" width="500" height="500"/>
</g>
<g id="OBJECTS">
	<g>
		<g>
			<linearGradient id="SVGID_1_" gradientUnits="userSpaceOnUse" x1="50.6126" y1="41.9979" x2="116.0649" y2="82.5783">
				<stop  offset="0" style="stop-color:#FF6B4A"/>
				<stop  offset="1" style="stop-color:#C93241"/>
			</linearGradient>
			<path class="st1" d="M112.79,49.79H46C46,61.85,56.44,72,70.63,75.01c-0.53,2.33-1.72,5.49-4.48,7.37
				c5.21-0.67,10.19-3.31,13.54-6.46C97.99,75.8,112.79,64.15,112.79,49.79z"/>
			
				<linearGradient id="SVGID_00000035495442724144496380000000822587123872337792_" gradientUnits="userSpaceOnUse" x1="79.3946" y1="48.6016" x2="79.3946" y2="3.3474">
				<stop  offset="0" style="stop-color:#FFE4E0"/>
				<stop  offset="1" style="stop-color:#FFFFFF"/>
			</linearGradient>
			<path style="fill:url(#SVGID_00000035495442724144496380000000822587123872337792_);" d="M121.51,26.2
				c0-6.72-5.74-12.16-12.82-12.16c-2.63,0-5.06,0.75-7.1,2.03C98.93,6.81,90.01,0,79.39,0S59.86,6.81,57.2,16.08
				c-2.03-1.28-4.47-2.03-7.09-2.03c-7.08,0-12.83,5.45-12.83,12.16c0,5.35,3.65,9.89,8.72,11.52v9.8h66.78v-9.8
				C117.86,36.09,121.51,31.56,121.51,26.2z"/>
			<g>
				<path class="st0" d="M71.97,59.42c0,1.32-0.92,2.39-2.05,2.39c-1.13,0-2.05-1.07-2.05-2.39c0-1.32,0.92-2.38,2.05-2.38
					C71.05,57.03,71.97,58.1,71.97,59.42z"/>
				<path class="st0" d="M90.92,59.42c0,1.32-0.92,2.39-2.05,2.39c-1.13,0-2.05-1.07-2.05-2.39c0-1.32,0.92-2.38,2.05-2.38
					C90,57.03,90.92,58.1,90.92,59.42z"/>
			</g>
			<g>
				<path class="st0" d="M79.39,67.98c-1.86,0-3.52-1-4.34-2.61c-0.3-0.6-0.07-1.32,0.53-1.63c0.59-0.3,1.32-0.07,1.63,0.53
					c0.41,0.79,1.24,1.29,2.18,1.29c0.94,0,1.78-0.49,2.18-1.29c0.3-0.6,1.03-0.83,1.63-0.53c0.6,0.3,0.83,1.03,0.53,1.63
					C82.91,66.98,81.25,67.98,79.39,67.98z"/>
			</g>
		</g>
		<g>
			<g>
				<path class="st3" d="M0,102.58c1.25-0.26,3.04-0.4,4.75-0.4c2.64,0,4.35,0.48,5.54,1.56c0.97,0.85,1.51,2.16,1.51,3.64
					c0,2.53-1.59,4.21-3.61,4.89v0.09c1.48,0.51,2.36,1.88,2.81,3.86c0.62,2.67,1.08,4.52,1.48,5.26H9.92
					c-0.31-0.54-0.74-2.19-1.28-4.57c-0.57-2.64-1.59-3.64-3.84-3.72H2.47v8.3H0V102.58z M2.47,111.3H5c2.64,0,4.32-1.45,4.32-3.64
					c0-2.47-1.79-3.55-4.4-3.58c-1.19,0-2.04,0.11-2.44,0.23V111.3z"/>
				<path class="st3" d="M16.71,115.05c0.06,3.38,2.22,4.77,4.72,4.77c1.79,0,2.87-0.31,3.81-0.71l0.43,1.79
					c-0.88,0.4-2.39,0.85-4.57,0.85c-4.23,0-6.76-2.78-6.76-6.93s2.44-7.42,6.45-7.42c4.49,0,5.68,3.95,5.68,6.48
					c0,0.51-0.06,0.91-0.09,1.17H16.71z M24.04,113.26c0.03-1.59-0.65-4.06-3.47-4.06c-2.53,0-3.64,2.33-3.83,4.06H24.04z"/>
				<path class="st3" d="M39.35,120.96c-0.65,0.34-2.1,0.8-3.95,0.8c-4.15,0-6.85-2.81-6.85-7.02c0-4.23,2.9-7.3,7.39-7.3
					c1.48,0,2.78,0.37,3.47,0.71l-0.57,1.93c-0.6-0.34-1.53-0.65-2.9-0.65c-3.15,0-4.86,2.33-4.86,5.2c0,3.18,2.05,5.14,4.77,5.14
					c1.42,0,2.36-0.37,3.07-0.68L39.35,120.96z"/>
				<path class="st3" d="M43.5,115.05c0.06,3.38,2.22,4.77,4.72,4.77c1.79,0,2.87-0.31,3.81-0.71l0.43,1.79
					c-0.88,0.4-2.39,0.85-4.57,0.85c-4.23,0-6.76-2.78-6.76-6.93s2.44-7.42,6.45-7.42c4.49,0,5.68,3.95,5.68,6.48
					c0,0.51-0.06,0.91-0.08,1.17H43.5z M50.83,113.26c0.03-1.59-0.65-4.06-3.47-4.06c-2.53,0-3.64,2.33-3.84,4.06H50.83z"/>
				<path class="st3" d="M59.13,103.86c0.03,0.85-0.6,1.53-1.59,1.53c-0.88,0-1.51-0.68-1.51-1.53c0-0.88,0.65-1.56,1.56-1.56
					C58.53,102.3,59.13,102.98,59.13,103.86z M56.34,121.48v-13.75h2.5v13.75H56.34z"/>
				<path class="st3" d="M66,103.77v3.95h3.58v1.9H66v7.42c0,1.7,0.48,2.67,1.88,2.67c0.65,0,1.14-0.08,1.45-0.17l0.11,1.88
					c-0.48,0.2-1.25,0.34-2.22,0.34c-1.16,0-2.1-0.37-2.7-1.05c-0.71-0.74-0.97-1.96-0.97-3.58v-7.5h-2.13v-1.9h2.13v-3.3L66,103.77
					z"/>
				<path class="st3" d="M80.01,121.48l-0.2-1.73h-0.08c-0.77,1.08-2.25,2.05-4.21,2.05c-2.79,0-4.21-1.96-4.21-3.95
					c0-3.32,2.96-5.14,8.27-5.11v-0.28c0-1.14-0.31-3.18-3.12-3.18c-1.28,0-2.61,0.4-3.58,1.02l-0.57-1.65
					c1.14-0.74,2.78-1.22,4.52-1.22c4.21,0,5.23,2.87,5.23,5.63v5.14c0,1.19,0.06,2.36,0.23,3.3H80.01z M79.64,114.46
					c-2.73-0.06-5.82,0.43-5.82,3.1c0,1.62,1.08,2.39,2.36,2.39c1.79,0,2.93-1.14,3.32-2.3c0.08-0.26,0.14-0.54,0.14-0.8V114.46z"/>
				<path class="st3" d="M85.75,118.92c0.74,0.48,2.04,0.99,3.29,0.99c1.82,0,2.67-0.91,2.67-2.05c0-1.19-0.71-1.85-2.56-2.53
					c-2.47-0.88-3.64-2.24-3.64-3.89c0-2.22,1.79-4.03,4.75-4.03c1.39,0,2.61,0.4,3.38,0.85l-0.62,1.82
					c-0.54-0.34-1.54-0.8-2.81-0.8c-1.48,0-2.3,0.85-2.3,1.88c0,1.14,0.82,1.65,2.61,2.33c2.39,0.91,3.61,2.1,3.61,4.15
					c0,2.42-1.88,4.12-5.14,4.12c-1.51,0-2.9-0.37-3.86-0.94L85.75,118.92z"/>
				<path class="st3" d="M119.82,111.7c0,6.59-4.01,10.09-8.89,10.09c-5.06,0-8.61-3.92-8.61-9.72c0-6.08,3.78-10.06,8.89-10.06
					C116.43,102.01,119.82,106.02,119.82,111.7z M104.96,112.01c0,4.09,2.22,7.76,6.11,7.76c3.92,0,6.14-3.61,6.14-7.96
					c0-3.81-1.99-7.78-6.11-7.78C107,104.03,104.96,107.81,104.96,112.01z"/>
				<path class="st3" d="M134.93,101.3v16.62c0,1.22,0.03,2.61,0.11,3.55h-2.24l-0.11-2.39h-0.06c-0.77,1.53-2.44,2.7-4.69,2.7
					c-3.32,0-5.88-2.81-5.88-6.99c-0.03-4.57,2.81-7.39,6.17-7.39c2.1,0,3.52,0.99,4.15,2.1h0.06v-8.21H134.93z M132.43,113.32
					c0-0.31-0.03-0.74-0.11-1.05c-0.37-1.59-1.73-2.9-3.61-2.9c-2.58,0-4.12,2.27-4.12,5.31c0,2.78,1.36,5.09,4.06,5.09
					c1.68,0,3.21-1.11,3.67-2.98c0.08-0.34,0.11-0.68,0.11-1.08V113.32z"/>
				<path class="st3" d="M141.86,103.86c0.03,0.85-0.6,1.53-1.59,1.53c-0.88,0-1.51-0.68-1.51-1.53c0-0.88,0.65-1.56,1.56-1.56
					C141.27,102.3,141.86,102.98,141.86,103.86z M139.08,121.48v-13.75h2.5v13.75H139.08z"/>
				<path class="st3" d="M145.73,111.45c0-1.42-0.03-2.59-0.11-3.72h2.22l0.14,2.27h0.06c0.68-1.31,2.27-2.59,4.55-2.59
					c1.9,0,4.86,1.14,4.86,5.85v8.21h-2.5v-7.93c0-2.22-0.82-4.06-3.18-4.06c-1.65,0-2.93,1.17-3.35,2.56
					c-0.11,0.31-0.17,0.74-0.17,1.16v8.27h-2.5V111.45z"/>
			</g>
		</g>
	</g>
	<g>
		
			<linearGradient id="SVGID_00000117646112434427950060000005541258883253186967_" gradientUnits="userSpaceOnUse" x1="-271.0602" y1="-27.0001" x2="-183.0522" y2="-27.0001">
			<stop  offset="0" style="stop-color:#FFC421"/>
			<stop  offset="1" style="stop-color:#FC8312"/>
		</linearGradient>
		<path style="fill:url(#SVGID_00000117646112434427950060000005541258883253186967_);" d="M-200.49-44.48
			c-1.78,0-3.55,0.28-5.24,0.83c-2.05-9.73-10.85-16.96-21.33-16.96c-10.48,0-19.28,7.22-21.33,16.96
			c-1.69-0.55-3.46-0.83-5.24-0.83c-9.61,0-17.44,8.08-17.44,18.02c0,9.94,7.82,18.02,17.44,18.02c0.84,0,1.69-0.06,2.53-0.19V4.28
			c0,1.29,1.04,2.33,2.33,2.33h10.28c1.29,0,2.33-1.04,2.33-2.33c0-1.29-1.04-2.33-2.33-2.33h-7.94v-13.57
			c0-0.75-0.37-1.47-0.98-1.9c-0.62-0.44-1.41-0.55-2.12-0.3c-1.34,0.47-2.71,0.71-4.08,0.71c-7.04,0-12.77-5.99-12.77-13.36
			c0-7.37,5.73-13.36,12.77-13.36c2.09,0,4.17,0.54,6,1.57c0.71,0.39,1.56,0.4,2.27,0c0.7-0.39,1.16-1.12,1.2-1.92
			c0.46-8.85,7.97-15.78,17.1-15.78c9.13,0,16.64,6.93,17.1,15.78c0.04,0.8,0.5,1.53,1.2,1.92c0.71,0.39,1.56,0.39,2.27,0
			c1.84-1.03,3.91-1.57,6-1.57c7.04,0,12.77,5.99,12.77,13.36c0,7.36-5.73,13.36-12.77,13.36c-1.37,0-2.74-0.24-4.08-0.71
			c-0.71-0.25-1.5-0.14-2.12,0.3c-0.62,0.44-0.98,1.15-0.98,1.9V1.95h-18.69l-3.6-2.33c-9.64-6.23-9.64-10.34-9.64-11.69
			c0-2.96,2.41-5.38,5.38-5.38c2.23,0,4.2,1.34,5.01,3.42c0.35,0.89,1.21,1.48,2.17,1.48c0.96,0,1.82-0.59,2.17-1.48
			c0.81-2.08,2.78-3.42,5.01-3.42c2.96,0,5.38,2.41,5.38,5.38c0,1.22,0,3.74-4.43,7.77c-0.95,0.87-1.02,2.34-0.16,3.29
			c0.87,0.95,2.34,1.03,3.29,0.16c5.96-5.41,5.96-9.48,5.96-11.22c0-5.53-4.5-10.04-10.04-10.04c-2.78,0-5.33,1.11-7.18,3.01
			c-1.84-1.89-4.4-3.01-7.18-3.01c-5.53,0-10.04,4.5-10.04,10.04c0,3.43,1.22,8.79,11.77,15.61l4.18,2.71
			c0.38,0.24,0.82,0.37,1.27,0.37h21.71c1.29,0,2.33-1.04,2.33-2.33V-8.64c0.84,0.13,1.68,0.19,2.53,0.19
			c9.61,0,17.44-8.08,17.44-18.02C-183.05-36.4-190.87-44.48-200.49-44.48z"/>
		
			<text transform="matrix(1 0 0 1 -286.2583 39.2831)" class="st3" style="font-family:'Sacramento-Regular'; font-size:28.4128px;">Love Chef</text>
	</g>
	<g>
		
			<text transform="matrix(1 0 0 1 -532.3624 198.8666)" class="st3" style="font-family:'Sacramento-Regular'; font-size:28.4128px;">The Gourmet</text>
		
			<linearGradient id="SVGID_00000115512105340053210510000014903322853992273809_" gradientUnits="userSpaceOnUse" x1="-454.74" y1="96.6599" x2="-445.2459" y2="159.667">
			<stop  offset="0" style="stop-color:#FF6B4A"/>
			<stop  offset="1" style="stop-color:#C93241"/>
		</linearGradient>
		<path style="fill:url(#SVGID_00000115512105340053210510000014903322853992273809_);" d="M-434.51,96.24
			c-6.48,0-11.53,1.92-15.01,5.7c-0.89,0.96-0.83,2.46,0.14,3.35c0.96,0.89,2.47,0.82,3.35-0.14c2.58-2.81,6.35-4.17,11.52-4.17
			c9.21,0,16.16,7,16.16,16.29c0,10.93-8.04,18.74-15.05,24.33c-4.82,3.84-9.52,6.82-10.04,7.14l-8.17,5.11l-8.17-5.11
			c-0.52-0.32-5.19-3.27-10.04-7.14c-7.01-5.59-15.05-13.4-15.05-24.33c0-9.29,6.95-16.29,16.16-16.29c5.83,0,9.93,4.28,13.81,8.67
			l-2.88,2.88c-1.63-1.01-3.5-1.56-5.46-1.56c0,0,0,0,0,0c-2.77,0-5.38,1.08-7.34,3.04l-6.3,6.3c-0.93,0.93-0.93,2.43,0,3.36
			c0.93,0.93,2.43,0.93,3.36,0l6.3-6.3c1.06-1.06,2.48-1.65,3.98-1.65c0,0,0,0,0,0c0.67,0,1.31,0.13,1.92,0.36l-10.06,10.06
			c-0.93,0.93-0.93,2.43,0,3.36c0.46,0.46,1.07,0.7,1.68,0.7c0.61,0,1.21-0.23,1.68-0.7l10.06-10.06c0.22,0.61,0.36,1.26,0.36,1.92
			c0,1.5-0.59,2.92-1.65,3.99l-6.46,6.46c-0.93,0.93-0.93,2.43,0,3.36c0.46,0.46,1.07,0.7,1.68,0.7c0.61,0,1.22-0.23,1.68-0.7
			l6.46-6.46c1.96-1.96,3.04-4.57,3.04-7.34c0-1.96-0.55-3.84-1.56-5.46l2.77-2.77l20.81,20.91l1.46-3.01
			c0.18-0.37,4.23-9-2.53-15.79c-3.83-3.84-4.55-4.57-5.03-5.06l-0.84-0.85c-2.07-2.08-5.83-2.74-8.71,0.13l-1.06,1.06l-2.31-2.33
			l-0.78-0.88c-4.34-4.93-9.75-11.06-18.07-11.06c-11.72,0-20.91,9.24-20.91,21.04c0,12.95,9,21.79,16.84,28.04
			c5.06,4.04,9.94,7.12,10.48,7.46l10.68,6.69l10.69-6.69c0.89-0.56,5.56-3.53,10.48-7.45c7.84-6.25,16.84-15.08,16.84-28.04
			C-413.6,105.48-422.78,96.24-434.51,96.24z M-443.13,112.81c0.96-0.96,1.71-0.42,1.99-0.14l0.82,0.83
			c0.48,0.49,1.2,1.22,5.05,5.08c2.19,2.2,2.62,4.74,2.48,6.76l-11.41-11.46L-443.13,112.81z"/>
	</g>
	<g>
		
			<text transform="matrix(1 0 0 1 -295.6773 192.4501)" class="st3" style="font-family:'Sacramento-Regular'; font-size:28.4128px;">Ramen Talk</text>
		<g>
			
				<linearGradient id="SVGID_00000032629788578771781690000012944712913511886484_" gradientUnits="userSpaceOnUse" x1="-226.0344" y1="115.9062" x2="-233.1153" y2="162.8983">
				<stop  offset="0" style="stop-color:#FFE4E0"/>
				<stop  offset="1" style="stop-color:#FFFFFF"/>
			</linearGradient>
			<path style="fill:url(#SVGID_00000032629788578771781690000012944712913511886484_);" d="M-191.22,119.12h-71.67
				c-1.8,0-3.25,1.46-3.25,3.25V123c0,1.79,1.45,3.25,3.25,3.25h3.38c0,1.91,0,5.33,0,8.76c0,5.14,2.8,17.51,20.58,17.51h8.64
				c-0.02,2.83-0.53,7.02-3.04,9.48c7.18-2.12,10.97-5.38,13.11-9.48h5.03c17.78,0,20.58-12.37,20.58-17.51c0-3.43,0-6.85,0-8.76
				h3.38c1.79,0,3.25-1.46,3.25-3.25v-0.63C-187.97,120.58-189.43,119.12-191.22,119.12z"/>
			<g>
				
					<linearGradient id="SVGID_00000040576767859297539730000012619057933481742517_" gradientUnits="userSpaceOnUse" x1="-242.8921" y1="94.3285" x2="-242.8921" y2="124.6256">
					<stop  offset="0" style="stop-color:#FFC421"/>
					<stop  offset="1" style="stop-color:#FC8312"/>
				</linearGradient>
				<path style="fill:url(#SVGID_00000040576767859297539730000012619057933481742517_);" d="M-242.89,106.68
					c-6.21,0-11.27,5.06-11.27,11.27h3.25c0-4.42,3.6-8.02,8.02-8.02c4.42,0,8.02,3.6,8.02,8.02h3.25
					C-231.62,111.74-236.68,106.68-242.89,106.68z"/>
				
					<linearGradient id="SVGID_00000160187843245325963850000015679782824446251699_" gradientUnits="userSpaceOnUse" x1="-242.8921" y1="94.3289" x2="-242.8921" y2="124.6256">
					<stop  offset="0" style="stop-color:#FFC421"/>
					<stop  offset="1" style="stop-color:#FC8312"/>
				</linearGradient>
				<path style="fill:url(#SVGID_00000160187843245325963850000015679782824446251699_);" d="M-242.89,111.18
					c-3.73,0-6.77,3.04-6.77,6.77h3.25c0-1.94,1.58-3.52,3.52-3.52c1.94,0,3.52,1.58,3.52,3.52h3.25
					C-236.12,114.22-239.16,111.18-242.89,111.18z"/>
				
					<linearGradient id="SVGID_00000018214785234690069340000017394944194336455579_" gradientUnits="userSpaceOnUse" x1="-227.0562" y1="94.3286" x2="-227.0562" y2="124.6258">
					<stop  offset="0" style="stop-color:#FFC421"/>
					<stop  offset="1" style="stop-color:#FC8312"/>
				</linearGradient>
				<path style="fill:url(#SVGID_00000018214785234690069340000017394944194336455579_);" d="M-211.22,102.18
					c-0.43,0-0.85,0.03-1.28,0.06c-2.43-5.86-8.12-9.71-14.56-9.71c-6.44,0-12.13,3.85-14.56,9.71c-0.42-0.03-0.85-0.06-1.28-0.06
					c-8.7,0-15.77,7.08-15.77,15.77h3.25c0-6.91,5.62-12.52,12.52-12.52c6.91,0,12.52,5.62,12.52,12.52h3.25
					c0-3.71-1.29-7.11-3.44-9.81c0.09-1.86,1.62-3.36,3.5-3.36c1.87,0,3.39,1.47,3.49,3.38c-2.14,2.69-3.43,6.09-3.43,9.79h3.25
					c0-6.91,5.62-12.52,12.52-12.52c6.91,0,12.52,5.62,12.52,12.52h3.25C-195.45,109.26-202.52,102.18-211.22,102.18z
					 M-227.06,95.78c4.88,0,9.21,2.78,11.27,7.08c-0.4,0.12-0.79,0.27-1.18,0.42c-1.88-3.8-5.74-6.24-10.09-6.24
					c-4.36,0-8.22,2.45-10.09,6.24c-0.39-0.15-0.78-0.3-1.18-0.42C-236.26,98.57-231.93,95.78-227.06,95.78z M-220.89,105.52
					c-1.06-2.35-3.42-3.98-6.16-3.98c-2.74,0-5.1,1.64-6.16,3.98c-0.34-0.26-0.68-0.52-1.04-0.75c1.33-2.72,4.08-4.49,7.2-4.49
					c3.12,0,5.87,1.76,7.2,4.49C-220.21,105.01-220.56,105.26-220.89,105.52z"/>
				
					<linearGradient id="SVGID_00000093141227299393106900000007407488638490528905_" gradientUnits="userSpaceOnUse" x1="-211.2202" y1="94.3285" x2="-211.2202" y2="124.6256">
					<stop  offset="0" style="stop-color:#FFC421"/>
					<stop  offset="1" style="stop-color:#FC8312"/>
				</linearGradient>
				<path style="fill:url(#SVGID_00000093141227299393106900000007407488638490528905_);" d="M-211.22,106.68
					c-6.22,0-11.27,5.06-11.27,11.27h3.25c0-4.42,3.6-8.02,8.02-8.02c4.42,0,8.02,3.6,8.02,8.02h3.25
					C-199.95,111.74-205.01,106.68-211.22,106.68z"/>
				
					<linearGradient id="SVGID_00000116957572112853086770000015503457052842653094_" gradientUnits="userSpaceOnUse" x1="-211.2202" y1="94.3289" x2="-211.2202" y2="124.6256">
					<stop  offset="0" style="stop-color:#FFC421"/>
					<stop  offset="1" style="stop-color:#FC8312"/>
				</linearGradient>
				<path style="fill:url(#SVGID_00000116957572112853086770000015503457052842653094_);" d="M-211.22,111.18
					c-3.73,0-6.77,3.04-6.77,6.77h3.25c0-1.94,1.58-3.52,3.52-3.52c1.94,0,3.52,1.58,3.52,3.52h3.25
					C-204.45,114.22-207.49,111.18-211.22,111.18z"/>
			</g>
			<g>
				<path class="st0" d="M-234.48,134.14c0,1.32-0.92,2.39-2.05,2.39c-1.13,0-2.05-1.07-2.05-2.39c0-1.32,0.92-2.38,2.05-2.38
					C-235.4,131.76-234.48,132.82-234.48,134.14z"/>
				<path class="st0" d="M-215.53,134.14c0,1.32-0.92,2.39-2.05,2.39c-1.13,0-2.05-1.07-2.05-2.39c0-1.32,0.92-2.38,2.05-2.38
					C-216.45,131.76-215.53,132.82-215.53,134.14z"/>
			</g>
			<g>
				<path class="st0" d="M-227.06,142.71c-1.86,0-3.52-1-4.34-2.61c-0.3-0.6-0.07-1.32,0.53-1.63c0.59-0.3,1.32-0.07,1.63,0.53
					c0.4,0.79,1.24,1.29,2.18,1.29c0.94,0,1.78-0.49,2.18-1.29c0.3-0.59,1.03-0.83,1.63-0.53c0.6,0.3,0.83,1.03,0.53,1.63
					C-223.54,141.71-225.2,142.71-227.06,142.71z"/>
			</g>
		</g>
	</g>
	<g>
		
			<text transform="matrix(1 0 0 1 -300.1524 331.9501)" class="st3" style="font-family:'Sacramento-Regular'; font-size:28.4128px;">Sunset Plate</text>
		
			<linearGradient id="SVGID_00000175288168078755293700000013567835721965459104_" gradientUnits="userSpaceOnUse" x1="-264.1914" y1="234.8212" x2="-264.1914" y2="278.8825">
			<stop  offset="0" style="stop-color:#FFC421"/>
			<stop  offset="1" style="stop-color:#FC8312"/>
		</linearGradient>
		<path style="fill:url(#SVGID_00000175288168078755293700000013567835721965459104_);" d="M-266.42,240.24l-2.28-0.8v35.66
			c0,0.94,0.77,1.71,1.71,1.71c0.94,0,1.71-0.77,1.71-1.71v-8.41h1.09c2.93,0,4.51-2.25,4.51-4.37v-12.74
			C-259.68,242.68-266.15,240.34-266.42,240.24z M-263.1,262.33c0,0.28-0.11,0.94-1.09,0.94h-1.09v-18.4
			c1.09,0.97,2.17,2.48,2.17,4.71V262.33z"/>
		
			<linearGradient id="SVGID_00000086693038220170491190000008079120532850971053_" gradientUnits="userSpaceOnUse" x1="-187.9796" y1="234.8205" x2="-187.9796" y2="278.8825">
			<stop  offset="0" style="stop-color:#FFC421"/>
			<stop  offset="1" style="stop-color:#FC8312"/>
		</linearGradient>
		<path style="fill:url(#SVGID_00000086693038220170491190000008079120532850971053_);" d="M-182.21,240.31
			c-0.94,0-1.71,0.76-1.71,1.71v10.21c0,1.63-0.97,3.02-2.35,3.67v-14.04c0-0.94-0.77-1.71-1.71-1.71c-0.95,0-1.71,0.77-1.71,1.71
			v14.04c-1.38-0.65-2.35-2.04-2.35-3.67v-10.37c0-0.94-0.77-1.71-1.71-1.71c-0.94,0-1.71,0.77-1.71,1.71v10.37
			c0,3.54,2.47,6.5,5.77,7.28v15.6c0,0.94,0.77,1.71,1.71,1.71c0.94,0,1.71-0.77,1.71-1.71v-15.6c3.3-0.78,5.77-3.74,5.77-7.28
			v-10.21C-180.5,241.07-181.26,240.31-182.21,240.31z"/>
		<g>
			
				<linearGradient id="SVGID_00000142135528638953056850000007686417953722835600_" gradientUnits="userSpaceOnUse" x1="-278.7789" y1="284.302" x2="-175.3335" y2="284.302">
				<stop  offset="0" style="stop-color:#FF6B4A"/>
				<stop  offset="1" style="stop-color:#C93241"/>
			</linearGradient>
			<path style="fill:url(#SVGID_00000142135528638953056850000007686417953722835600_);" d="M-176.38,284.16
				c-7.96-4.71-17.76-4.91-25.88-0.61c-7.75-4.11-17.04-4.11-24.79,0c-7.75-4.11-17.04-4.11-24.79,0c-8.12-4.3-17.92-4.1-25.88,0.61
				c-1.02,0.6-1.35,1.91-0.75,2.93c0.6,1.02,1.91,1.35,2.93,0.75c6.97-4.13,15.64-4.13,22.62,0c0.67,0.4,1.5,0.4,2.18,0
				c6.97-4.13,15.64-4.13,22.62,0c0.67,0.4,1.5,0.4,2.18,0c6.98-4.13,15.64-4.13,22.62,0c0.67,0.4,1.5,0.4,2.18,0
				c6.98-4.13,15.64-4.13,22.62,0c0.34,0.2,0.72,0.3,1.09,0.3c0.73,0,1.44-0.38,1.84-1.05
				C-175.03,286.07-175.37,284.76-176.38,284.16z"/>
			
				<linearGradient id="SVGID_00000165938897067435450020000011935819943668352701_" gradientUnits="userSpaceOnUse" x1="-267.0423" y1="295.0856" x2="-187.0701" y2="295.0856">
				<stop  offset="0" style="stop-color:#FF6B4A"/>
				<stop  offset="1" style="stop-color:#C93241"/>
			</linearGradient>
			<path style="fill:url(#SVGID_00000165938897067435450020000011935819943668352701_);" d="M-189.15,291.27
				c-4.6-0.13-9.09,0.93-13.11,3.06c-7.75-4.11-17.04-4.11-24.79,0c-7.75-4.11-17.04-4.11-24.79,0c-4.02-2.13-8.52-3.19-13.11-3.06
				c-1.18,0.03-2.11,1.01-2.08,2.19c0.03,1.18,1.03,2.14,2.2,2.08c4.2-0.12,8.32,0.95,11.91,3.07c0.67,0.4,1.5,0.4,2.18,0
				c6.97-4.12,15.64-4.12,22.62,0c0.67,0.4,1.5,0.4,2.18,0c6.98-4.12,15.64-4.12,22.62,0c0.33,0.2,0.71,0.3,1.09,0.3
				c0.38,0,0.75-0.1,1.09-0.3c3.59-2.12,7.7-3.19,11.91-3.07c1.19,0.06,2.16-0.9,2.2-2.08
				C-187.04,292.29-187.97,291.31-189.15,291.27z"/>
		</g>
		<g>
			
				<linearGradient id="SVGID_00000079475912073712360230000007162634700814937498_" gradientUnits="userSpaceOnUse" x1="-227.0562" y1="234.8214" x2="-227.0562" y2="278.8825">
				<stop  offset="0" style="stop-color:#FFC421"/>
				<stop  offset="1" style="stop-color:#FC8312"/>
			</linearGradient>
			<path style="fill:url(#SVGID_00000079475912073712360230000007162634700814937498_);" d="M-199.33,277.25
				c-0.05,0-0.1,0-0.15-0.01c-1.18-0.08-2.07-1.1-1.99-2.28c0.05-0.69,0.07-1.25,0.07-1.77c0-14.15-11.51-25.66-25.66-25.66
				c-14.15,0-25.66,11.51-25.66,25.66c0,0.52,0.02,1.08,0.07,1.77c0.08,1.18-0.81,2.2-1.99,2.28c-1.18,0.08-2.2-0.81-2.28-1.99
				c-0.05-0.79-0.08-1.44-0.08-2.06c0-16.51,13.43-29.94,29.94-29.94c16.51,0,29.94,13.43,29.94,29.94c0,0.62-0.02,1.27-0.08,2.06
				C-197.27,276.38-198.21,277.25-199.33,277.25z"/>
		</g>
		<g>
			
				<linearGradient id="SVGID_00000026867930171833625950000005579731872966705550_" gradientUnits="userSpaceOnUse" x1="-227.0562" y1="234.8201" x2="-227.0562" y2="278.8826">
				<stop  offset="0" style="stop-color:#FFC421"/>
				<stop  offset="1" style="stop-color:#FC8312"/>
			</linearGradient>
			<path style="fill:url(#SVGID_00000026867930171833625950000005579731872966705550_);" d="M-213.52,275.37
				c-1.18,0-2.14-0.96-2.14-2.14c0-0.02,0-0.05,0-0.08c-0.02-6.27-5.13-11.36-11.41-11.36c-6.27,0-11.38,5.09-11.41,11.36
				c0,0.03,0,0.06,0,0.08c0,1.18-0.96,2.14-2.14,2.14c-1.15,0-2.09-0.92-2.14-2.06c0-0.04,0-0.08,0-0.12
				c0-8.65,7.04-15.68,15.68-15.68c8.65,0,15.68,7.03,15.68,15.68c0,0.03,0,0.08,0,0.12C-211.42,274.46-212.36,275.37-213.52,275.37
				z"/>
		</g>
	</g>
	<g>
		<g>
			
				<text transform="matrix(1 0 0 1 -504.8306 338.3666)" class="st3" style="font-family:'Sacramento-Regular'; font-size:28.4128px;">The Chef</text>
		</g>
		
			<linearGradient id="SVGID_00000003063623494910956590000015114153196853228446_" gradientUnits="userSpaceOnUse" x1="-483.2407" y1="271.9521" x2="-416.8744" y2="271.9521">
			<stop  offset="0" style="stop-color:#FF6B4A"/>
			<stop  offset="1" style="stop-color:#C93241"/>
		</linearGradient>
		<path style="fill:url(#SVGID_00000003063623494910956590000015114153196853228446_);" d="M-417.42,259.41
			c-1.03-2.81-3.07-4.98-5.89-6.27c-2.06-0.95-5.21-1.71-9.63-1.07c-0.81-4.58-2.98-8.43-6.24-10.93
			c-2.81-2.16-7.74-4.26-15.26-2.04c-7.04,2.08-11.58,6.64-14.16,11.75c-4.51-0.94-8.67,0.69-11.82,4.67
			c-2.79,3.53-3.53,7.74-2.14,12.15c1.65,5.2,6.22,10.09,11.21,12.17c-0.3,10.75-1.28,22.87-1.29,23l-0.24,2.94l2.82-0.86
			c18.44-5.65,37.43-7.39,37.61-7.41l1.96-0.17l-0.87-11.81c-0.08-1.1-1.04-1.93-2.14-1.85c-1.1,0.08-1.93,1.04-1.85,2.14l0.58,7.91
			c-5.07,0.57-19.24,2.42-33.67,6.54c0.33-4.56,0.94-13.73,1.11-21.77l0.03-1.53l-1.46-0.43c-3.7-1.1-8.45-5.16-10-10.06
			c-0.99-3.14-0.5-5.98,1.46-8.46c2.37-3,5-3.58,7.14-3.35c-1.23,3.9-1.45,7.85-0.88,11.05c0.94,5.3,4.68,7.28,7.76,6.88
			c3.4-0.44,6.83-3.78,6.32-10.05c-0.32-3.88-3.65-8.08-7.89-10.31c2.18-4.05,5.89-7.63,11.52-9.29c4.67-1.38,8.71-0.9,11.69,1.38
			c2.45,1.88,4.12,4.96,4.75,8.62c-0.83,0.24-1.7,0.53-2.61,0.87c-7.87,2.96-10.6,8.15-10.53,12.02c0.05,2.61,1.42,4.74,3.49,5.44
			c2.41,0.81,5.46,0.21,7.99-1.56c2.13-1.5,5.74-5.15,5.93-12.85c0.01-0.27,0.01-0.53,0.01-0.79c2.97-0.46,5.58-0.23,7.61,0.71
			c1.83,0.84,3.15,2.23,3.8,4.01c0.71,1.93,0.24,5.57-2.45,9.03c-2.93,3.76-10.47,9.79-28.14,7.95c-1.1-0.13-2.08,0.68-2.2,1.78
			c-0.11,1.1,0.68,2.08,1.78,2.2c19.59,2.04,28.28-5.06,31.71-9.47C-417.27,268.15-416.07,263.1-417.42,259.41z M-460.93,262.85
			c0.3,3.66-1.26,5.55-2.85,5.76c-1.55,0.21-2.88-1.25-3.31-3.62c-0.47-2.63-0.29-5.86,0.7-9.07
			C-463.34,257.64-461.11,260.66-460.93,262.85z M-440.82,266.43c-1.68,1.18-3.43,1.38-4.42,1.04c-0.36-0.12-0.75-0.71-0.76-1.72
			c-0.04-2.39,2.01-5.97,7.94-8.21c0.49-0.19,0.98-0.36,1.46-0.51C-436.82,262.77-439.33,265.38-440.82,266.43z"/>
	</g>
</g>
</svg>
